<svg width="653" height="422" viewBox="0 0 653 422" fill="none" xmlns="http://www.w3.org/2000/svg">
<path d="M206.899 336.658V394.804C206.899 412.416 198.61 421.361 181.539 421.361H171.128C154.309 421.361 145.767 412.416 145.767 394.804V248.879C145.767 231.268 154.309 222.322 171.128 222.322H181.272C198.357 222.322 206.352 230.988 206.352 248.6V302.832H186.077V249.998C186.077 244.127 183.674 241.611 178.068 241.611H174.598C169.259 241.611 166.856 244.127 166.856 249.998V393.686C166.856 399.557 169.259 402.072 174.598 402.072H178.602C183.941 402.072 186.344 399.557 186.344 393.686V336.658H206.899ZM256.553 421.361H245.327C228.523 421.361 219.967 412.416 219.967 394.525V248.879C219.967 231.268 228.509 222.322 245.327 222.322H256.553C273.638 222.322 281.914 231.268 281.914 248.879V394.525C281.9 412.416 273.638 421.361 256.553 421.361V421.361ZM253.069 241.611H248.811C243.472 241.611 241.056 244.127 241.056 249.998V393.686C241.056 399.277 243.472 401.793 248.811 401.793H253.069C258.408 401.793 261.078 399.277 261.078 393.686V249.998C261.078 244.127 258.408 241.611 253.069 241.611V241.611ZM313.054 281.028L314.122 327.712L314.389 419.684H295.702V224H319.995L340.55 350.635L339.482 312.617V224H358.169V419.684H335.478L313.054 281.028ZM372.024 224H403.551C424.107 224 433.183 233.784 433.183 255.309V388.375C433.183 409.62 423.573 419.684 403.551 419.684H372.051L372.024 224ZM392.873 400.395H400.615C408.623 400.395 412.361 396.202 412.361 387.815V255.868C412.361 247.482 408.623 243.288 400.615 243.288H392.873V400.395ZM507.663 394.245C507.663 412.136 499.388 421.082 482.303 421.082H472.159C455.073 421.082 446.798 412.136 446.798 394.245V224H467.62V393.406C467.62 398.997 470.023 401.793 475.629 401.793H478.832C484.438 401.793 486.841 398.997 486.841 393.406V224H507.663V394.245ZM582.411 336.658V394.804C582.411 412.416 574.135 421.361 557.05 421.361H546.639C529.821 421.361 521.278 412.416 521.278 394.804V248.879C521.278 231.268 529.821 222.322 546.639 222.322H556.783C573.868 222.322 581.877 230.988 581.877 248.6V302.832H561.588V249.998C561.588 244.127 559.186 241.611 553.58 241.611H550.109C544.77 241.611 542.368 244.127 542.368 249.998V393.686C542.368 399.557 544.77 402.072 550.109 402.072H554.114C559.453 402.072 561.855 399.557 561.855 393.686V336.658H582.411ZM610.174 419.684V243.848H592.288V224H648.882V243.848H630.996V419.684H610.174Z" fill="#053A2B"/>
<path d="M61.4358 117.995V176.141C61.4358 193.752 53.1602 202.698 36.0751 202.698H25.6639C8.84576 202.698 0.303223 193.752 0.303223 176.141V30.2301C0.303223 12.6185 8.84576 3.67289 25.6639 3.67289H35.8082C52.8932 3.67289 60.9018 12.3389 60.9018 29.9505V84.1831H40.6133V31.3483C40.6133 25.4777 38.2107 22.9618 32.6047 22.9618H29.1343C23.7952 22.9618 21.3926 25.4777 21.3926 31.3483V175.023C21.3926 180.893 23.7952 183.409 29.1343 183.409H33.1386C38.4777 183.409 40.8803 180.893 40.8803 175.023V117.995H61.4358ZM165.548 0.5C112.851 0.5 69.9783 46.6256 69.9783 103.388C69.9783 160.151 112.891 206.248 165.588 206.248C218.285 206.248 261.171 160.123 261.171 103.36C261.171 46.5977 218.298 0.5 165.588 0.5H165.548ZM87.4905 103.388C87.4905 57.0528 122.502 19.3556 165.548 19.3556C183.304 19.3661 200.5 25.8613 214.174 37.722L104.562 155.734C93.4763 140.758 87.4822 122.336 87.5305 103.388H87.4905ZM165.548 187.421C147.796 187.405 130.602 180.916 116.922 169.068L226.6 51.0984C237.696 66.07 243.699 84.4928 243.659 103.444C243.659 149.723 208.674 187.421 165.588 187.421H165.548ZM269.54 4.74914H301.027C321.583 4.74914 330.659 14.5334 330.659 36.0587V169.124C330.659 190.37 321.049 200.42 301.027 200.42H269.54V4.74914ZM290.362 181.089H298.104C306.113 181.089 309.837 176.896 309.837 168.509V36.5619C309.837 28.1754 306.113 23.9821 298.104 23.9821H290.362V181.089ZM392.326 4.69324V24.5412H366.698V91.3535H391.258V110.922H366.698V180.53H392.593V200.364H345.876V4.67925L392.326 4.69324ZM426.256 4.69324V180.53H448.413V200.364H405.433V4.67925L426.256 4.69324ZM505.808 4.69324V24.5412H480.18V91.3535H504.74V110.922H480.18V180.53H506.075V200.364H459.358V4.67925L505.808 4.69324ZM579.754 129.931V175.218C579.754 193.109 571.479 201.775 554.394 201.775H545.05C528.232 201.775 519.956 193.123 519.956 175.512V121.838H540.512V174.394C540.512 179.985 542.914 182.501 548.254 182.501H551.19C556.529 182.501 558.932 179.985 558.932 174.394V132.741C558.932 124.634 557.33 121.279 552.258 117.086L532.503 100.593C522.893 92.4857 519.956 85.497 519.956 71.5195V29.8666C519.956 11.9755 528.232 3.30946 545.317 3.30946H554.127C571.212 3.30946 579.487 11.9755 579.487 29.5871V79.906H558.665V30.7053C558.665 25.1143 556.529 22.3188 551.19 22.3188H548.521C543.181 22.3188 540.779 25.1143 540.779 30.7053V69.0035C540.779 77.1105 542.381 80.4651 547.453 84.6583L566.673 100.593C577.071 109.021 579.741 116.01 579.741 129.987L579.754 129.931ZM652.366 129.931V175.218C652.366 193.109 644.09 201.775 627.005 201.775H617.662C600.844 201.775 592.568 193.123 592.568 175.512V121.838H613.11V174.394C613.11 179.985 615.513 182.501 620.852 182.501H623.788C629.127 182.501 631.53 179.985 631.53 174.394V132.741C631.53 124.634 629.928 121.279 624.856 117.086L605.102 100.635C595.491 92.5276 592.555 85.5389 592.555 71.5614V29.9086C592.555 12.0174 600.83 3.35139 617.915 3.35139H626.725C643.81 3.35139 652.085 12.0174 652.085 29.629V79.9479H631.263V30.7472C631.263 25.1562 629.127 22.3608 623.788 22.3608H621.119C615.78 22.3608 613.377 25.1562 613.377 30.7472V69.0455C613.377 77.1524 614.979 80.507 620.051 84.7002L639.272 100.635C649.696 109.021 652.366 116.01 652.366 129.987V129.931Z" fill="#053A2B"/>
</svg>
