<svg width="425" height="153" viewBox="0 0 425 153" fill="none" xmlns="http://www.w3.org/2000/svg">
<path d="M0.84 31H7.12C7.4 31 7.56 30.84 7.56 30.56V10.04H7.76L27.64 30.76C27.8 30.92 27.96 31 28.2 31H36.6C36.92 31 37.04 30.84 37.04 30.56V1.88C37.04 1.6 36.92 1.44 36.6 1.44H30.36C30.04 1.44 29.88 1.6 29.88 1.88V22.04H29.68L9.56 1.68C9.44 1.52 9.32 1.44 9.08 1.44H0.84C0.56 1.44 0.4 1.6 0.4 1.88V30.56C0.4 30.84 0.56 31 0.84 31ZM61.7644 0.84H58.7644C47.7644 0.84 40.4844 7 40.4844 16.2C40.4844 25.36 47.6444 31.6 58.7644 31.6H61.7644C72.6844 31.6 79.9244 25.36 79.9644 16.2C79.9644 7 72.8044 0.84 61.7644 0.84ZM59.1244 7.52H61.3644C68.4044 7.52 72.4444 10.96 72.4444 16.2C72.4444 17.72 72.0844 19.12 71.4044 20.32L50.7644 10C52.6844 8.44 55.5244 7.52 59.1244 7.52ZM61.3644 24.88H59.1244C52.0844 24.88 48.0444 21.4 48.0044 16.2C48.0044 14.64 48.3644 13.2 49.0844 12L69.7644 22.28C67.8844 23.92 65.0444 24.88 61.3644 24.88ZM98.5688 31H104.849C105.169 31 105.289 30.84 105.289 30.56V7.6H121.009C121.329 7.6 121.449 7.44 121.449 7.16V1.88C121.449 1.6 121.329 1.44 121.009 1.44H82.4088C82.1288 1.44 81.9688 1.6 81.9688 1.88V7.16C81.9688 7.44 82.1288 7.6 82.4088 7.6H98.1288V30.56C98.1288 30.84 98.2488 31 98.5688 31ZM176.962 30.44L162.322 1.76C162.242 1.52 162.082 1.44 161.842 1.44H152.362C152.122 1.44 152.002 1.52 151.882 1.76L137.002 30.48C136.842 30.76 136.922 31 137.322 31H145.042C145.282 31 145.482 30.92 145.562 30.68L147.682 26.32H166.202L168.282 30.64C168.362 30.88 168.562 31 168.842 31H176.682C177.042 31 177.122 30.76 176.962 30.44ZM150.602 20.2L156.802 7.36H157.042L163.242 20.2H150.602ZM180.567 31H186.847C187.127 31 187.287 30.84 187.287 30.56V10.04H187.487L207.367 30.76C207.527 30.92 207.687 31 207.927 31H216.327C216.647 31 216.767 30.84 216.767 30.56V1.88C216.767 1.6 216.647 1.44 216.327 1.44H210.087C209.767 1.44 209.607 1.6 209.607 1.88V22.04H209.407L189.287 1.68C189.167 1.52 189.047 1.44 188.807 1.44H180.567C180.287 1.44 180.127 1.6 180.127 1.88V30.56C180.127 30.84 180.287 31 180.567 31ZM241.491 0.84H238.491C227.491 0.84 220.211 7 220.211 16.2C220.211 25.36 227.371 31.6 238.491 31.6H241.491C252.411 31.6 259.651 25.36 259.691 16.2C259.691 7 252.531 0.84 241.491 0.84ZM238.851 7.52H241.091C248.131 7.52 252.171 10.96 252.171 16.2C252.171 17.72 251.811 19.12 251.131 20.32L230.491 10C232.411 8.44 235.251 7.52 238.851 7.52ZM241.091 24.88H238.851C231.811 24.88 227.771 21.4 227.731 16.2C227.731 14.64 228.091 13.2 228.811 12L249.491 22.28C247.611 23.92 244.771 24.88 241.091 24.88ZM278.295 31H284.575C284.895 31 285.015 30.84 285.015 30.56V7.6H300.735C301.055 7.6 301.175 7.44 301.175 7.16V1.88C301.175 1.6 301.055 1.44 300.735 1.44H262.135C261.855 1.44 261.695 1.6 261.695 1.88V7.16C261.695 7.44 261.855 7.6 262.135 7.6H277.855V30.56C277.855 30.84 277.975 31 278.295 31ZM305.02 31H311.3C311.58 31 311.74 30.84 311.74 30.56V19.08H334.1V30.56C334.1 30.84 334.26 31 334.54 31H340.82C341.1 31 341.26 30.84 341.26 30.56V1.88C341.26 1.6 341.1 1.44 340.82 1.44H334.54C334.26 1.44 334.1 1.6 334.1 1.88V12.92H311.74V1.88C311.74 1.6 311.58 1.44 311.3 1.44H305.02C304.74 1.44 304.58 1.6 304.58 1.88V30.56C304.58 30.84 304.74 31 305.02 31ZM346.504 31H382.784C383.064 31 383.224 30.84 383.224 30.56V25.28C383.224 25 383.064 24.84 382.784 24.84H353.224V19.08H377.344C377.664 19.08 377.784 18.92 377.784 18.64V13.48C377.784 13.2 377.664 13.04 377.344 13.04H353.224V7.6H382.704C383.024 7.6 383.144 7.44 383.144 7.16V1.88C383.144 1.6 383.024 1.44 382.704 1.44H346.504C346.224 1.44 346.064 1.6 346.064 1.88V30.56C346.064 30.84 346.224 31 346.504 31ZM424.628 30.48L416.108 19.88C421.588 18.88 424.708 15.56 424.708 10.88C424.708 4.76 419.948 1.44 412.508 1.44H388.228C387.948 1.44 387.788 1.6 387.788 1.88V30.56C387.788 30.84 387.948 31 388.228 31H394.508C394.788 31 394.948 30.84 394.948 30.56V20.52H407.948L415.428 30.64C415.628 30.84 415.788 31 416.068 31H424.308C424.628 31 424.828 30.76 424.628 30.48ZM394.948 14.36V7.6H412.348C415.628 7.6 417.148 8.8 417.148 10.92C417.148 13.08 415.548 14.36 412.348 14.36H394.948ZM3.59 151H15.29C15.94 151 16.33 150.61 16.33 149.96V108.75H27.38V149.96C27.38 150.61 27.77 151 28.42 151H39.99C40.64 151 41.03 150.61 41.03 149.96V56.23C41.03 55.58 40.64 55.19 39.99 55.19H28.42C27.77 55.19 27.38 55.58 27.38 56.23V94.45H16.33V56.23C16.33 55.58 15.94 55.19 15.29 55.19H3.59C2.94 55.19 2.55 55.58 2.55 56.23V149.96C2.55 150.61 2.94 151 3.59 151ZM92.6674 149.83L80.8374 56.1C80.7074 55.45 80.3174 55.19 79.6674 55.19H58.9974C58.3474 55.19 57.9574 55.45 57.8274 56.1L46.2574 149.83C46.1274 150.61 46.3874 151 47.1674 151H60.0374C60.6874 151 61.0774 150.61 61.0774 149.96L62.5074 135.66H76.1574L77.5874 149.96C77.5874 150.74 78.1074 151 78.6274 151H91.6274C92.4074 151 92.7974 150.61 92.6674 149.83ZM63.9374 120.84L68.7474 70.4H69.6574L74.7274 120.84H63.9374ZM116.875 152.3C131.695 152.3 137.805 139.56 137.805 124.87V113.82C137.935 113.04 137.545 112.65 136.765 112.65H124.415C123.765 112.65 123.505 113.04 123.375 113.69V123.83C123.375 132.15 121.685 137.09 117.005 137.09C111.935 137.09 109.725 132.15 109.725 119.02V86.91C109.725 73.91 111.935 68.97 117.005 68.97C121.685 68.97 123.375 73.91 123.375 82.23V91.85C123.505 92.5 123.765 92.89 124.415 92.89H136.765C137.545 92.89 137.935 92.5 137.805 91.72V81.06C137.805 65.72 131.955 53.89 116.875 53.89C102.705 53.89 95.5548 66.24 95.5548 83.92V122.01C95.5548 139.69 102.575 152.3 116.875 152.3ZM187.882 149.57L172.412 90.03L187.492 56.49C187.882 55.71 187.362 55.19 186.712 55.19H173.192C172.542 55.19 172.022 55.45 171.762 56.1L159.022 86.26V56.23C159.022 55.58 158.632 55.19 157.982 55.19H146.412C145.762 55.19 145.372 55.58 145.372 56.23V149.96C145.372 150.61 145.762 151 146.412 151H157.982C158.632 151 159.022 150.61 159.022 149.96V117.72L162.402 106.28L172.672 150.09C172.802 150.74 173.192 151 173.712 151H187.102C187.882 151 188.142 150.35 187.882 149.57ZM235.49 149.83L223.66 56.1C223.53 55.45 223.14 55.19 222.49 55.19H201.82C201.17 55.19 200.78 55.45 200.65 56.1L189.08 149.83C188.95 150.61 189.21 151 189.99 151H202.86C203.51 151 203.9 150.61 203.9 149.96L205.33 135.66H218.98L220.41 149.96C220.41 150.74 220.93 151 221.45 151H234.45C235.23 151 235.62 150.61 235.49 149.83ZM206.76 120.84L211.57 70.4H212.48L217.55 120.84H206.76ZM254.107 151H265.677C266.457 151 266.717 150.61 266.717 149.96V69.49H280.627C281.277 69.49 281.667 69.1 281.667 68.45V56.23C281.667 55.58 281.277 55.19 280.627 55.19H239.027C238.377 55.19 237.987 55.58 237.987 56.23V68.45C237.987 69.1 238.377 69.49 239.027 69.49H253.067V149.96C253.067 150.61 253.457 151 254.107 151ZM289.235 151H300.935C301.585 151 301.975 150.61 301.975 149.96V108.75H313.025V149.96C313.025 150.61 313.415 151 314.065 151H325.635C326.285 151 326.675 150.61 326.675 149.96V56.23C326.675 55.58 326.285 55.19 325.635 55.19H314.065C313.415 55.19 313.025 55.58 313.025 56.23V94.45H301.975V56.23C301.975 55.58 301.585 55.19 300.935 55.19H289.235C288.585 55.19 288.195 55.58 288.195 56.23V149.96C288.195 150.61 288.585 151 289.235 151ZM355.042 53.89C340.612 53.89 333.592 66.24 333.592 83.92V122.14C333.592 139.82 340.612 152.3 355.042 152.3C369.472 152.3 376.622 139.82 376.622 122.14V83.92C376.622 66.24 369.472 53.89 355.042 53.89ZM355.042 68.97C360.372 68.97 362.322 74.04 362.322 86.91V113.04L347.762 83.27C348.152 73.13 350.232 68.97 355.042 68.97ZM355.042 137.09C349.712 137.09 347.762 132.15 347.762 119.15V94.58L362.192 123.57C361.802 133.06 359.722 137.09 355.042 137.09ZM384.449 151H396.019C396.799 151 397.059 150.61 397.059 149.96V127.99L395.499 88.47H396.409L407.589 150.09C407.719 150.74 408.109 151 408.759 151H420.849C421.499 151 421.889 150.61 421.889 149.96V56.23C421.889 55.58 421.499 55.19 420.849 55.19H409.279C408.629 55.19 408.239 55.58 408.239 56.23V75.08L410.059 115.9H409.149L397.709 55.97C397.579 55.45 397.189 55.19 396.539 55.19H384.449C383.799 55.19 383.409 55.58 383.409 56.23V149.96C383.409 150.61 383.799 151 384.449 151Z" fill="#053A2B"/>
</svg>
