<svg width="140" height="148" viewBox="0 0 140 148" fill="none" xmlns="http://www.w3.org/2000/svg">
<path fill-rule="evenodd" clip-rule="evenodd" d="M69.703 147.949C108.209 147.949 140 121.487 140 73.7008C140 31.644 110.972 0.0507812 70.099 0.0507812C42.4529 0.0507812 23.5769 12.7091 9.6296 35.5026C4.66736 43.6157 0 58.89 0 77.0582C0 115.762 29.8155 147.949 69.703 147.949ZM88.9613 73.6837C89.9677 73.2959 90.9269 72.7957 91.8206 72.1927L91.8744 72.2381C92.0151 72.1555 92.1708 72.1014 92.3324 72.0789C92.4941 72.0564 92.6586 72.0659 92.8166 72.107C92.9746 72.148 93.1229 72.2198 93.253 72.3181C93.3832 72.4165 93.4927 72.5394 93.5751 72.68C93.7344 72.9659 93.7768 73.3021 93.6935 73.6184C93.6102 73.9348 93.4077 74.2067 93.1282 74.3775C92.1062 75.0398 91.0175 75.5935 89.8799 76.0296C89.0355 76.3796 88.1246 76.541 87.211 76.5025C86.2975 76.4639 85.4034 76.2264 84.5916 75.8066C82.9561 74.81 81.6475 73.3588 80.826 71.631C79.8412 69.6196 79.4646 67.3934 79.2826 65.1797C79.0853 62.9133 79.095 60.6337 79.3115 58.369C79.7523 54.0338 80.8287 49.7868 82.506 45.7638C82.9118 44.7824 83.3471 43.806 83.819 42.8462L83.4908 42.0346C83.0778 41.0369 82.6647 40.0434 82.2517 39.0499L82.2494 39.0443L82.0963 38.6809C82.0406 38.5458 82.0904 38.6604 82.1005 38.6838L82.0549 38.5776L81.8025 37.9911C81.6411 37.6194 81.4798 37.256 81.3142 36.8884L81.3184 36.8843C81.16 36.5993 81.1177 36.2644 81.2001 35.9491C81.2826 35.6338 81.4835 35.3623 81.7611 35.1909C81.9018 35.1083 82.0575 35.0542 82.2191 35.0317C82.3808 35.0092 82.5454 35.0187 82.7033 35.0598C82.8613 35.1008 83.0096 35.1726 83.1398 35.2709C83.2699 35.3692 83.3794 35.4922 83.4619 35.6328C84.1227 37.0885 84.7364 38.5667 85.339 40.0486C86.2875 38.4738 87.3655 36.9811 88.6096 35.6284C90.3599 33.7285 92.9958 31.6015 95.7683 31.8659C97.7793 32.0641 98.9214 33.869 99.5959 35.583C100.481 37.8215 100.73 40.3327 100.783 42.724C100.838 45.9107 100.505 49.0923 99.7904 52.1986C98.9478 55.9584 97.5608 59.6785 95.5786 63.0251C96.0542 63.8323 96.5432 64.6248 97.0758 65.3906C97.2082 65.5888 97.3448 65.7829 97.4896 65.9771L97.6343 66.1718L97.6636 66.2093L97.7337 66.2992C97.982 66.609 98.2427 66.9105 98.52 67.1996C99.6248 68.3519 97.8703 70.1072 96.7613 68.9508C95.7265 67.8684 94.8537 66.628 94.0654 65.3411C92.7289 67.198 91.1813 68.8975 89.4123 70.3713C89.2987 70.493 89.1616 70.5906 89.0093 70.6583C88.8571 70.7261 88.6927 70.7625 88.526 70.7654C88.3593 70.7684 88.1937 70.7378 88.0392 70.6754C87.8846 70.6131 87.7442 70.5204 87.6263 70.4027C87.5084 70.2851 87.4155 70.1449 87.3531 69.9906C87.2906 69.8363 87.26 69.6711 87.2629 69.5047C87.2658 69.3383 87.3023 69.1743 87.3702 69.0223C87.438 68.8703 87.5359 68.7335 87.6578 68.6201C88.2992 68.0832 88.9158 67.5215 89.5033 66.9267C90.6387 65.7829 91.6575 64.5295 92.5448 63.1848C92.5959 63.1078 92.6467 63.0307 92.6971 62.9533C90.251 58.4645 88.2646 53.7176 86.3171 48.9939C85.8895 47.9574 85.4668 46.9201 85.0462 45.8823C84.6505 46.7974 84.2917 47.7293 83.9709 48.6756C82.6017 52.4249 81.8025 56.3577 81.5998 60.3432C81.4907 62.4942 81.5919 64.6508 81.9019 66.7822C82.204 68.6532 82.655 70.3011 83.7971 71.7755C83.9709 72.0027 84.3102 72.3951 84.575 72.6677C84.6254 72.7136 84.6763 72.7611 84.7279 72.8092L84.7279 72.8093L84.7282 72.8095C84.8247 72.8996 84.9236 72.9919 85.0261 73.0807L85.2081 73.2335L85.2474 73.2666C85.255 73.2714 85.2652 73.2781 85.2785 73.2872C85.4439 73.4046 85.6151 73.5134 85.7916 73.6134C85.823 73.6316 85.9149 73.6733 85.9984 73.7112L85.9986 73.7114C86.1242 73.7684 86.2304 73.8167 86.0813 73.7621C86.2289 73.8183 86.3794 73.8666 86.5323 73.9067C86.5597 73.9132 86.6223 73.9247 86.6862 73.9364L86.6872 73.9366L86.6873 73.9366C86.7967 73.9566 86.9098 73.9774 86.8586 73.9754C87.0542 73.991 87.2505 73.9971 87.4468 73.9934H87.6785C87.7111 73.9934 87.7366 73.9937 87.7565 73.9941L87.7613 73.9934C88.1693 73.9238 88.5706 73.8202 88.9613 73.6837ZM89.0978 38.7921C88.1393 40.1064 87.2702 41.4806 86.4955 42.9054L86.7647 43.5709L86.765 43.5714C88.4892 47.8344 90.1638 51.9747 92.0854 56.1473C92.7523 57.5989 93.433 59.0418 94.1669 60.4603C94.448 59.9306 94.7143 59.393 94.9655 58.8481C95.6161 57.4251 96.1691 55.9597 96.6207 54.4619C97.0807 52.9497 97.4523 51.412 97.7338 49.8568C97.8041 49.4562 97.8704 49.068 97.9283 48.6549C97.9394 48.5803 97.9653 48.3928 97.9787 48.2955C97.9854 48.2475 97.9889 48.2214 97.9862 48.2419C97.9779 48.3039 98.0359 47.9322 98.0359 47.8289C98.1269 47.0937 98.1931 46.3585 98.2386 45.6192C98.3214 44.2699 98.3214 42.9169 98.2386 41.5676C98.2074 40.9992 98.1505 40.4345 98.0852 39.87C98.1003 40.0115 98.042 39.5938 98.0276 39.486C98.0111 39.3621 97.9903 39.2341 97.9655 39.106C97.9186 38.85 97.869 38.5938 97.8166 38.3378C97.7055 37.8405 97.5673 37.3497 97.4028 36.8675C97.3545 36.703 97.3003 36.56 97.2457 36.4156L97.2457 36.4155L97.2455 36.4151L97.2454 36.4149C97.2206 36.3492 97.1956 36.2833 97.171 36.2149L97.1624 36.1918L97.1421 36.1488C97.1254 36.1139 97.1094 36.079 97.0936 36.0443L97.0934 36.044L97.0931 36.0432L97.0929 36.043L97.0928 36.0427C97.0695 35.9918 97.0465 35.9416 97.0221 35.8928C96.8545 35.5721 96.6709 35.2601 96.4719 34.9579L96.4179 34.8932C96.402 34.876 96.386 34.8583 96.3699 34.8404L96.3698 34.8403L96.3693 34.8397C96.3355 34.8023 96.3011 34.7642 96.2648 34.728L96.1117 34.5793L96.0942 34.5614C96.1178 34.5782 96.1392 34.5881 96.1489 34.5793L96.0511 34.5179C96.0036 34.4709 95.9937 34.4649 96.0032 34.4769C96.0076 34.4824 96.0162 34.4918 96.0271 34.5028L95.7959 34.3577C95.7837 34.353 95.7714 34.3479 95.7592 34.3427C95.7286 34.3299 95.6982 34.3171 95.6693 34.3126C95.6941 34.3015 95.6873 34.2917 95.611 34.2985C95.601 34.2978 95.591 34.2974 95.581 34.2972L95.4455 34.2696C95.4445 34.2809 95.4463 34.2905 95.4502 34.2985H95.1641H95.0441C94.9223 34.3325 94.7982 34.3595 94.6738 34.3865C94.5108 34.422 94.3472 34.4576 94.1875 34.5092C94.1179 34.5323 94.0678 34.5516 94.0051 34.5757L94.005 34.5758L94.0049 34.5758C93.9558 34.5946 93.8991 34.6165 93.8193 34.6454L93.6538 34.7198C93.0693 35.0038 92.5148 35.3456 91.9986 35.7399C92.1624 35.6165 92.0653 35.6937 91.9867 35.7561C91.9601 35.7772 91.9356 35.7966 91.9241 35.806L91.6799 36.0084L91.3572 36.2975C91.0799 36.5494 90.8234 36.7973 90.5503 37.0822L90.5047 37.1298C90.2472 37.3982 89.9943 37.6619 89.7599 37.9661C89.6296 38.1352 89.4958 38.2986 89.376 38.445L89.3756 38.4455L89.3755 38.4456L89.3753 38.4459C89.2671 38.578 89.1704 38.6962 89.0978 38.7921ZM95.4502 34.2985H95.5283C95.5458 34.2973 95.5634 34.2968 95.581 34.2972L95.6483 34.3109C95.6552 34.3109 95.6622 34.3115 95.6693 34.3126C95.6249 34.3326 95.4791 34.357 95.4502 34.2985ZM96.0271 34.5028L96.0511 34.5179C96.063 34.5297 96.0773 34.544 96.0942 34.5614C96.071 34.5448 96.0457 34.5215 96.0271 34.5028ZM49.1207 73.6837C50.1271 73.2959 51.0863 72.7957 51.98 72.1927L52.0586 72.2381C52.1993 72.1555 52.355 72.1014 52.5166 72.0789C52.6783 72.0564 52.8428 72.0659 53.0008 72.107C53.1588 72.148 53.3071 72.2198 53.4373 72.3181C53.5674 72.4165 53.6768 72.5394 53.7593 72.68C53.9186 72.9659 53.961 73.3021 53.8777 73.6184C53.7944 73.9348 53.5919 74.2067 53.3124 74.3775C52.2904 75.0398 51.2017 75.5935 50.0641 76.0296C49.2204 76.3795 48.3101 76.5409 47.3973 76.5023C46.4844 76.4638 45.5911 76.2263 44.7799 75.8066C43.1423 74.8113 41.832 73.3599 41.0102 71.631C40.0254 69.6196 39.6488 67.3935 39.4668 65.1797C39.2695 62.9133 39.2792 60.6337 39.4957 58.369C39.9385 54.0342 41.0147 49.7874 42.6902 45.7638C43.0956 44.786 43.5297 43.8133 43.9997 42.8569L43.6671 42.0345C43.2536 41.0355 42.84 40.0406 42.4264 39.0458L42.4264 39.0457L42.4263 39.0457L42.4257 39.0442L42.3921 38.9626L42.3921 38.9626C42.3535 38.8687 42.3143 38.7735 42.2726 38.6808C42.2168 38.5454 42.2669 38.6609 42.2769 38.6838L42.2312 38.5775L41.9788 37.991C41.8175 37.6193 41.6561 37.2559 41.4906 36.8883V36.8842C41.3315 36.5989 41.2893 36.2633 41.3726 35.9477C41.4559 35.632 41.6583 35.3608 41.9375 35.1908C42.2213 35.0252 42.5592 34.9788 42.8773 35.0616C43.1953 35.1445 43.4675 35.3499 43.634 35.6327C44.2968 37.0928 44.9122 38.5755 45.5166 40.0619C46.4665 38.4822 47.5462 36.9849 48.7938 35.6284C50.5441 33.7285 53.18 31.6015 55.9525 31.8659C57.9635 32.0641 59.1056 33.869 59.7801 35.583C60.6656 37.8215 60.9139 40.3327 60.9718 42.724C61.0233 45.9108 60.6885 49.0921 59.9746 52.1986C59.1311 55.9624 57.7421 59.6864 55.7572 63.0358C56.2308 63.8393 56.7178 64.6281 57.248 65.3904C57.3804 65.5887 57.5169 65.7828 57.6618 65.9769L57.8521 66.233C57.7685 66.1201 57.777 66.1312 57.8133 66.1788C57.838 66.2112 57.8757 66.2606 57.9059 66.2991C58.1542 66.6089 58.4149 66.9103 58.6921 67.1995C59.797 68.3518 58.0425 70.1071 56.9376 68.9507C55.9025 67.8708 55.0304 66.6337 54.2445 65.3501C52.91 67.2034 51.3655 68.8998 49.6007 70.3713C49.3646 70.5986 49.0494 70.7257 48.7213 70.7257C48.3933 70.7257 48.0781 70.5986 47.842 70.3713C47.6096 70.139 47.479 69.824 47.479 69.4957C47.479 69.1673 47.6096 68.8524 47.842 68.6201C48.4834 68.0832 49.1 67.5215 49.6876 66.9267C50.8229 65.7829 51.8417 64.5295 52.729 63.1848C52.7786 63.11 52.828 63.035 52.877 62.9599C50.4292 58.4691 48.4419 53.7198 46.4934 48.9938C46.063 47.9505 45.6376 46.9064 45.2143 45.8619C44.815 46.7835 44.4533 47.7222 44.1303 48.6756C42.761 52.4249 41.9618 56.3577 41.7592 60.3432C41.6501 62.4942 41.7513 64.6508 42.0613 66.7822C42.3634 68.6532 42.8185 70.3011 43.9565 71.7755C44.1302 72.0027 44.4696 72.3951 44.7344 72.6677C44.7848 72.7136 44.8356 72.7611 44.8872 72.8092L44.8872 72.8092M49.1207 73.6837C48.73 73.8202 48.3286 73.9238 47.9206 73.9934L49.1207 73.6837ZM47.9206 73.9934L47.9158 73.9941L47.9206 73.9934ZM47.9158 73.9941L47.8903 73.9937L47.9158 73.9941ZM47.8903 73.9937C47.8753 73.9935 47.8579 73.9934 47.8379 73.9934L47.8903 73.9937ZM47.8379 73.9934H47.6062H47.8379ZM47.6062 73.9934C47.4113 73.9971 47.2164 73.9911 47.0222 73.9754L47.6062 73.9934ZM47.0222 73.9754C47.0663 73.9769 46.9621 73.9576 46.8578 73.9384L47.0222 73.9754ZM46.8578 73.9384L46.8577 73.9384L46.8578 73.9384ZM46.8577 73.9384C46.7905 73.926 46.7234 73.9136 46.6958 73.9067L46.8577 73.9384ZM46.6958 73.9067C46.5414 73.8673 46.3895 73.819 46.2406 73.7621L46.6958 73.9067ZM46.2406 73.7621C46.3897 73.8167 46.2836 73.7685 46.158 73.7114L46.2406 73.7621ZM46.158 73.7114L46.1579 73.7113L46.158 73.7114ZM46.1579 73.7113C46.0744 73.6734 45.9823 73.6316 45.951 73.6134L46.1579 73.7113ZM45.951 73.6134C45.7745 73.5134 45.6032 73.4046 45.4379 73.2872L45.951 73.6134ZM45.4379 73.2872C45.423 73.2768 45.4121 73.2695 45.4045 73.2646L45.4379 73.2872ZM45.4045 73.2646L45.3675 73.2335L45.4045 73.2646ZM45.3675 73.2335L45.1854 73.0807L45.3675 73.2335ZM45.1854 73.0807C45.083 72.9919 44.984 72.8995 44.8873 72.8093L45.1854 73.0807ZM49.2613 38.7921C48.3042 40.1022 47.4363 41.4721 46.6626 42.8926L46.937 43.5709C48.6613 47.8341 50.3359 51.9744 52.2576 56.1472C52.9263 57.6027 53.6089 59.0495 54.3451 60.4718C54.6284 59.9384 54.8967 59.3969 55.1497 58.8481C55.8003 57.4251 56.3533 55.9597 56.8049 54.4619C57.2668 52.9502 57.6385 51.4124 57.918 49.8568C57.9897 49.4575 58.0559 49.0569 58.1166 48.6549C58.1233 48.5951 58.1431 48.4627 58.158 48.3624L58.158 48.3624L58.1581 48.3618L58.1582 48.3615C58.1663 48.307 58.173 48.2621 58.1754 48.2438C58.1768 48.2331 58.1767 48.2314 58.1746 48.2419C58.1707 48.2615 58.1741 48.2379 58.1808 48.1932C58.1951 48.0961 58.2242 47.8996 58.2242 47.8289C58.3111 47.0937 58.3773 46.3585 58.4228 45.6192C58.5056 44.2699 58.5056 42.9169 58.4228 41.5676C58.392 41.0067 58.3362 40.4493 58.2719 39.8922L58.2617 39.8158C58.2483 39.7143 58.2263 39.5483 58.2159 39.486L58.2071 39.4326L58.207 39.4324C58.1892 39.3253 58.171 39.2157 58.1497 39.106C58.1028 38.85 58.0532 38.5938 58.0008 38.3378C57.8896 37.8405 57.7515 37.3497 57.587 36.8675C57.5387 36.703 57.4845 36.56 57.4299 36.4156C57.4049 36.3497 57.3799 36.2835 57.3552 36.2149L57.3465 36.1916L57.3263 36.1488C57.3095 36.1135 57.2933 36.0783 57.2773 36.0433C57.2539 35.9922 57.2308 35.9418 57.2063 35.8928C57.0387 35.5721 56.8551 35.2601 56.6561 34.9578L56.6021 34.8932L56.4532 34.728L56.2959 34.5793L56.2784 34.5613C56.302 34.5782 56.3234 34.5881 56.3332 34.5793L56.2352 34.5179C56.1878 34.4709 56.1779 34.4649 56.1874 34.4769C56.1918 34.4824 56.2004 34.4918 56.2113 34.5028L55.9772 34.3558C55.9677 34.3521 55.9581 34.3481 55.9484 34.3441C55.9164 34.3308 55.8839 34.3173 55.8536 34.3126C55.8783 34.3015 55.8714 34.2917 55.7952 34.2985C55.7888 34.298 55.7824 34.2976 55.776 34.2974C55.7721 34.2972 55.7682 34.2971 55.7643 34.297L55.6297 34.2696C55.6287 34.2809 55.6305 34.2905 55.6344 34.2985H55.3483H55.2324C55.1097 34.3323 54.9861 34.3591 54.8625 34.386L54.8624 34.386C54.6985 34.4217 54.5345 34.4574 54.3718 34.5092C54.3021 34.5323 54.2519 34.5516 54.1891 34.5758L54.189 34.5758L54.1889 34.5759C54.1399 34.5947 54.0832 34.6165 54.0035 34.6454L53.8379 34.7198C53.2854 34.9881 52.7596 35.3081 52.2679 35.6756C52.2604 35.682 52.2249 35.71 52.1883 35.7391L52.1882 35.7391L52.1876 35.7396C52.1536 35.7665 52.1186 35.7942 52.1041 35.806L51.86 36.0084L51.5372 36.2975C51.2393 36.5494 50.9827 36.7973 50.7096 37.0822C50.4365 37.3672 50.1883 37.6439 49.9193 37.9661C49.6503 38.2882 49.4103 38.5898 49.2613 38.7921ZM55.6344 34.2985H55.7125C55.7297 34.2972 55.747 34.2966 55.7643 34.297L55.8325 34.3109C55.8394 34.3109 55.8464 34.3115 55.8536 34.3126C55.8092 34.3326 55.6633 34.357 55.6344 34.2985ZM56.2113 34.5028L56.2352 34.5179C56.2472 34.5296 56.2614 34.544 56.2784 34.5613C56.2552 34.5447 56.2299 34.5215 56.2113 34.5028ZM100.217 87.3668L104.649 88.4593C104.294 91.1835 103.741 93.8787 102.993 96.5235C101.948 100.005 100.375 103.306 98.3296 106.312C94.4204 112.038 88.7587 116.348 82.1915 118.595C78.7451 119.759 75.1331 120.36 71.4948 120.375C67.8534 120.438 64.2183 120.047 60.674 119.21C58.9573 118.808 57.2705 118.288 55.6257 117.653C54.8312 117.348 54.2725 117.104 53.4243 116.699C52.6546 116.336 51.9015 115.939 51.1649 115.518C50.4284 115.097 49.7539 114.692 49.0959 114.217C48.7608 113.99 48.4256 113.754 48.0987 113.515C47.8422 113.331 47.697 113.216 47.5467 113.098L47.5467 113.098L47.5466 113.098C47.4546 113.025 47.3606 112.951 47.238 112.858C45.9555 111.833 44.7546 110.711 43.6462 109.5C42.5497 108.319 41.5558 107.046 40.6751 105.697C39.7276 104.261 38.8868 102.757 38.1593 101.199C37.4501 99.6717 36.8486 98.0971 36.3592 96.4863C35.8048 94.6824 35.3666 92.8448 35.0475 90.985C34.9636 90.4958 34.8938 90.035 34.8313 89.5966L38.0349 88.8084L39.3674 88.478C40.9191 88.098 40.2611 85.7067 38.7094 86.0908L29.5397 88.3458L28.2072 88.6762C26.6596 89.0562 27.3134 91.4475 28.8693 91.0634L32.4215 90.1895C32.898 93.4645 33.7198 96.6813 34.8737 99.7863C36.1584 103.161 37.9302 106.331 40.1331 109.195C44.4738 114.775 50.5442 118.731 57.2726 120.842C61.0178 121.986 64.8955 122.643 68.8093 122.795C72.6216 122.993 76.4426 122.644 80.1556 121.759C87.4099 119.971 93.882 115.87 98.5903 110.079C101.021 107.063 102.974 103.694 104.383 100.088C105.667 96.709 106.538 93.1882 106.978 89.6014L107.053 89.0517L109.382 89.626L110.715 89.9523C112.266 90.3323 112.929 87.945 111.373 87.5609L102.207 85.3059L100.875 84.9796C99.3229 84.5955 98.6608 86.9868 100.217 87.3668Z" fill="#053A2B"/>
</svg>
