<svg width="441" height="116" viewBox="0 0 441 116" fill="none" xmlns="http://www.w3.org/2000/svg">
<path d="M6.76 31H15.76C16 31 16.2 30.88 16.24 30.68L20.6 13.28H20.88L25.28 30.68C25.32 30.92 25.52 31 25.76 31H34.64C34.88 31 35.08 30.92 35.12 30.68L40.8 2.04C40.88 1.68 40.8 1.44 40.44 1.44H33.84C33.56 1.44 33.36 1.56 33.32 1.8L32.32 8.24L29.92 22.44H29.6L25.24 6.04C25.2 5.8 25 5.64 24.68 5.64H16.88C16.6 5.64 16.4 5.76 16.32 6L12.04 22.44H11.72L9.2 8.36L8.2 1.8C8.16 1.56 7.92 1.44 7.64 1.44H1C0.64 1.44 0.64 1.68 0.68 2L6.28 30.68C6.32 30.92 6.52 31 6.76 31ZM44.3244 31H50.6044C50.8844 31 51.0444 30.84 51.0444 30.56V19.08H73.4044V30.56C73.4044 30.84 73.5644 31 73.8444 31H80.1244C80.4044 31 80.5644 30.84 80.5644 30.56V1.88C80.5644 1.6 80.4044 1.44 80.1244 1.44H73.8444C73.5644 1.44 73.4044 1.6 73.4044 1.88V12.92H51.0444V1.88C51.0444 1.6 50.8844 1.44 50.6044 1.44H44.3244C44.0444 1.44 43.8844 1.6 43.8844 1.88V30.56C43.8844 30.84 44.0444 31 44.3244 31ZM123.689 30.44L109.049 1.76C108.969 1.52 108.809 1.44 108.569 1.44H99.0888C98.8488 1.44 98.7288 1.52 98.6088 1.76L83.7288 30.48C83.5688 30.76 83.6488 31 84.0488 31H91.7688C92.0088 31 92.2088 30.92 92.2888 30.68L94.4088 26.32H112.929L115.009 30.64C115.089 30.88 115.289 31 115.569 31H123.409C123.769 31 123.849 30.76 123.689 30.44ZM97.3288 20.2L103.529 7.36H103.769L109.969 20.2H97.3288ZM142.053 31H148.333C148.653 31 148.773 30.84 148.773 30.56V7.6H164.493C164.813 7.6 164.933 7.44 164.933 7.16V1.88C164.933 1.6 164.813 1.44 164.493 1.44H125.893C125.613 1.44 125.453 1.6 125.453 1.88V7.16C125.453 7.44 125.613 7.6 125.893 7.6H141.613V30.56C141.613 30.84 141.733 31 142.053 31ZM197.327 31H203.607C203.927 31 204.047 30.84 204.047 30.56V7.6H219.767C220.087 7.6 220.207 7.44 220.207 7.16V1.88C220.207 1.6 220.087 1.44 219.767 1.44H181.167C180.887 1.44 180.727 1.6 180.727 1.88V7.16C180.727 7.44 180.887 7.6 181.167 7.6H196.887V30.56C196.887 30.84 197.007 31 197.327 31ZM243.491 31.6C254.411 31.6 261.651 25.36 261.691 16.2C261.691 7 254.531 0.84 243.491 0.84H240.491C229.491 0.84 222.211 7 222.211 16.2C222.211 25.36 229.371 31.6 240.491 31.6H243.491ZM243.091 24.88H240.851C233.811 24.88 229.771 21.4 229.731 16.2C229.731 10.96 233.811 7.52 240.851 7.52H243.091C250.131 7.52 254.171 10.96 254.171 16.2C254.171 21.4 250.131 24.88 243.091 24.88ZM4.97 114H68.46C68.95 114 69.23 113.72 69.23 113.23V103.99C69.23 103.5 68.95 103.22 68.46 103.22H16.73V93.14H58.94C59.5 93.14 59.71 92.86 59.71 92.37V83.34C59.71 82.85 59.5 82.57 58.94 82.57H16.73V73.05H68.32C68.88 73.05 69.09 72.77 69.09 72.28V63.04C69.09 62.55 68.88 62.27 68.32 62.27H4.97C4.48 62.27 4.2 62.55 4.2 63.04V113.23C4.2 113.72 4.48 114 4.97 114ZM76.4477 114H92.1277C92.5477 114 92.9677 113.72 93.1777 113.51L109.978 96.43H110.328L127.688 113.58C128.038 113.86 128.318 114 128.738 114H144.068C144.768 114 145.048 113.51 144.558 113.02L118.798 88.17L144.558 63.25C144.978 62.76 144.768 62.27 143.998 62.27H128.598C128.178 62.27 127.828 62.48 127.548 62.83L110.538 79.7H110.188L93.1077 62.69C92.8277 62.41 92.4777 62.27 92.0577 62.27H76.5177C75.8177 62.27 75.6077 62.76 76.0277 63.25L101.718 88.1L75.9577 113.02C75.5377 113.51 75.7477 114 76.4477 114ZM152.965 114H163.955C164.445 114 164.725 113.72 164.725 113.23V98.18H194.685C209.805 98.18 217.505 91.04 217.505 80.12C217.505 69.41 209.805 62.27 194.685 62.27H152.965C152.475 62.27 152.195 62.55 152.195 63.04V113.23C152.195 113.72 152.475 114 152.965 114ZM164.725 87.47V73.05H194.125C201.335 73.05 204.765 75.36 204.765 80.12C204.765 85.09 201.195 87.47 194.125 87.47H164.725ZM226.963 114H290.453C290.943 114 291.223 113.72 291.223 113.23V103.99C291.223 103.5 290.943 103.22 290.453 103.22H238.723V93.14H280.933C281.493 93.14 281.703 92.86 281.703 92.37V83.34C281.703 82.85 281.493 82.57 280.933 82.57H238.723V73.05H290.313C290.873 73.05 291.083 72.77 291.083 72.28V63.04C291.083 62.55 290.873 62.27 290.313 62.27H226.963C226.473 62.27 226.193 62.55 226.193 63.04V113.23C226.193 113.72 226.473 114 226.963 114ZM329.731 115.05H334.981C352.901 115.05 363.611 108.05 366.621 94.54C366.761 93.84 366.551 93.49 365.851 93.49H353.391C352.761 93.49 352.341 93.56 352.131 94.19C349.891 100.49 343.591 103.43 334.281 103.43H330.361C318.111 103.43 310.901 96.99 310.901 88.1C310.901 79.21 318.041 72.84 330.361 72.84H334.281C343.591 72.84 349.891 75.78 352.131 82.08C352.341 82.71 352.691 82.78 353.391 82.78H365.851C366.551 82.78 366.761 82.43 366.621 81.73C363.611 68.22 352.901 61.22 334.981 61.22H329.731C310.481 61.22 297.741 72 297.741 88.1C297.741 104.34 310.411 115.05 329.731 115.05ZM400.788 114H411.778C412.338 114 412.548 113.72 412.548 113.23V73.05H440.058C440.618 73.05 440.828 72.77 440.828 72.28V63.04C440.828 62.55 440.618 62.27 440.058 62.27H372.508C372.018 62.27 371.738 62.55 371.738 63.04V72.28C371.738 72.77 372.018 73.05 372.508 73.05H400.018V113.23C400.018 113.72 400.228 114 400.788 114Z" fill="#053A2B"/>
</svg>
