<svg width="277" height="68" viewBox="0 0 277 68" fill="none" xmlns="http://www.w3.org/2000/svg">
<path d="M69.4768 17H74.4268C74.5588 17 74.6688 16.934 74.6908 16.824L77.0888 7.254H77.2428L79.6628 16.824C79.6848 16.956 79.7948 17 79.9268 17H84.8108C84.9428 17 85.0528 16.956 85.0748 16.824L88.1988 1.072C88.2428 0.873999 88.1988 0.742 88.0008 0.742H84.3708C84.2168 0.742 84.1068 0.807999 84.0848 0.94L83.5348 4.482L82.2148 12.292H82.0388L79.6408 3.272C79.6188 3.14 79.5088 3.052 79.3328 3.052H75.0428C74.8888 3.052 74.7788 3.118 74.7348 3.25L72.3808 12.292H72.2048L70.8188 4.548L70.2688 0.94C70.2468 0.807999 70.1148 0.742 69.9608 0.742H66.3088C66.1108 0.742 66.1108 0.873999 66.1328 1.05L69.2128 16.824C69.2348 16.956 69.3448 17 69.4768 17ZM90.1372 17H93.5912C93.7452 17 93.8332 16.912 93.8332 16.758V10.444H106.131V16.758C106.131 16.912 106.219 17 106.373 17H109.827C109.981 17 110.069 16.912 110.069 16.758V0.983999C110.069 0.83 109.981 0.742 109.827 0.742H106.373C106.219 0.742 106.131 0.83 106.131 0.983999V7.056H93.8332V0.983999C93.8332 0.83 93.7452 0.742 93.5912 0.742H90.1372C89.9832 0.742 89.8952 0.83 89.8952 0.983999V16.758C89.8952 16.912 89.9832 17 90.1372 17ZM133.788 16.692L125.736 0.918C125.692 0.785999 125.604 0.742 125.472 0.742H120.258C120.126 0.742 120.06 0.785999 119.994 0.918L111.81 16.714C111.722 16.868 111.766 17 111.986 17H116.232C116.364 17 116.474 16.956 116.518 16.824L117.684 14.426H127.87L129.014 16.802C129.058 16.934 129.168 17 129.322 17H133.634C133.832 17 133.876 16.868 133.788 16.692ZM119.29 11.06L122.7 3.998H122.832L126.242 11.06H119.29ZM143.888 17H147.342C147.518 17 147.584 16.912 147.584 16.758V4.13H156.23C156.406 4.13 156.472 4.042 156.472 3.888V0.983999C156.472 0.83 156.406 0.742 156.23 0.742H135C134.846 0.742 134.758 0.83 134.758 0.983999V3.888C134.758 4.042 134.846 4.13 135 4.13H143.646V16.758C143.646 16.912 143.712 17 143.888 17ZM174.288 17H177.742C177.918 17 177.984 16.912 177.984 16.758V4.13H186.63C186.806 4.13 186.872 4.042 186.872 3.888V0.983999C186.872 0.83 186.806 0.742 186.63 0.742H165.4C165.246 0.742 165.158 0.83 165.158 0.983999V3.888C165.158 4.042 165.246 4.13 165.4 4.13H174.046V16.758C174.046 16.912 174.112 17 174.288 17ZM199.679 0.412H198.029C191.979 0.412 187.975 3.8 187.975 8.86C187.975 13.898 191.913 17.33 198.029 17.33H199.679C205.685 17.33 209.667 13.898 209.689 8.86C209.689 3.8 205.751 0.412 199.679 0.412ZM198.227 4.086H199.459C203.331 4.086 205.553 5.978 205.553 8.86C205.553 9.696 205.355 10.466 204.981 11.126L193.629 5.45C194.685 4.592 196.247 4.086 198.227 4.086ZM199.459 13.634H198.227C194.355 13.634 192.133 11.72 192.111 8.86C192.111 8.002 192.309 7.21 192.705 6.55L204.079 12.204C203.045 13.106 201.483 13.634 199.459 13.634ZM1.18523 67H42.0002C42.3152 67 42.4952 66.82 42.4952 66.505V60.565C42.4952 60.25 42.3152 60.07 42.0002 60.07H8.74523V53.59H35.8802C36.2402 53.59 36.3752 53.41 36.3752 53.095V47.29C36.3752 46.975 36.2402 46.795 35.8802 46.795H8.74523V40.675H41.9102C42.2702 40.675 42.4052 40.495 42.4052 40.18V34.24C42.4052 33.925 42.2702 33.745 41.9102 33.745H1.18523C0.870235 33.745 0.690234 33.925 0.690234 34.24V66.505C0.690234 66.82 0.870235 67 1.18523 67ZM46.2352 67H56.3152C56.5852 67 56.8552 66.82 56.9902 66.685L67.7902 55.705H68.0152L79.1752 66.73C79.4002 66.91 79.5802 67 79.8502 67H89.7052C90.1552 67 90.3352 66.685 90.0202 66.37L73.4602 50.395L90.0202 34.375C90.2902 34.06 90.1552 33.745 89.6602 33.745H79.7602C79.4902 33.745 79.2652 33.88 79.0852 34.105L68.1502 44.95H67.9252L56.9452 34.015C56.7652 33.835 56.5402 33.745 56.2702 33.745H46.2802C45.8302 33.745 45.6952 34.06 45.9652 34.375L62.4802 50.35L45.9202 66.37C45.6502 66.685 45.7852 67 46.2352 67ZM94.5251 67H101.59C101.905 67 102.085 66.82 102.085 66.505V56.83H121.345C131.065 56.83 136.015 52.24 136.015 45.22C136.015 38.335 131.065 33.745 121.345 33.745H94.5251C94.2101 33.745 94.0301 33.925 94.0301 34.24V66.505C94.0301 66.82 94.2101 67 94.5251 67ZM102.085 49.945V40.675H120.985C125.62 40.675 127.825 42.16 127.825 45.22C127.825 48.415 125.53 49.945 120.985 49.945H102.085ZM141.195 67H182.01C182.325 67 182.505 66.82 182.505 66.505V60.565C182.505 60.25 182.325 60.07 182.01 60.07H148.755V53.59H175.89C176.25 53.59 176.385 53.41 176.385 53.095V47.29C176.385 46.975 176.25 46.795 175.89 46.795H148.755V40.675H181.92C182.28 40.675 182.415 40.495 182.415 40.18V34.24C182.415 33.925 182.28 33.745 181.92 33.745H141.195C140.88 33.745 140.7 33.925 140.7 34.24V66.505C140.7 66.82 140.88 67 141.195 67ZM206.36 67.675H209.735C221.255 67.675 228.14 63.175 230.075 54.49C230.165 54.04 230.03 53.815 229.58 53.815H221.57C221.165 53.815 220.895 53.86 220.76 54.265C219.32 58.315 215.27 60.205 209.285 60.205H206.765C198.89 60.205 194.255 56.065 194.255 50.35C194.255 44.635 198.845 40.54 206.765 40.54H209.285C215.27 40.54 219.32 42.43 220.76 46.48C220.895 46.885 221.12 46.93 221.57 46.93H229.58C230.03 46.93 230.165 46.705 230.075 46.255C228.14 37.57 221.255 33.07 209.735 33.07H206.36C193.985 33.07 185.795 40 185.795 50.35C185.795 60.79 193.94 67.675 206.36 67.675ZM251.14 67H258.205C258.565 67 258.7 66.82 258.7 66.505V40.675H276.385C276.745 40.675 276.88 40.495 276.88 40.18V34.24C276.88 33.925 276.745 33.745 276.385 33.745H232.96C232.645 33.745 232.465 33.925 232.465 34.24V40.18C232.465 40.495 232.645 40.675 232.96 40.675H250.645V66.505C250.645 66.82 250.78 67 251.14 67Z" fill="#053A2B"/>
</svg>
